<svg id="Layer_1" data-name="Layer 1" xmlns="http://www.w3.org/2000/svg" viewBox="0 0 370.88 576.63"><defs><style>.cls-1{fill:#fff;}</style></defs><title>logo</title><path class="cls-1" d="M232.4,203L256,180.19v43.95h21.34L256,248.77v72.65h19.81l-17.53,21.85H232.4V203Z" transform="translate(-230.62 -162.41)"/><path class="cls-1" d="M281.43,187l23.62-24.64v83.32l26.17-26.93L347,239.38v82.05h14.48l-17.27,21.85H324.1V252.33l-8.38-10.16-10.67,9.91v91.2H281.43V187Z" transform="translate(-230.62 -162.41)"/><path class="cls-1" d="M367,256.4l36.83-37.6,24.89,35.56-38.1,44.71v22.35h33l-20.58,21.85H367V256.4ZM410,268.59l-19.31-29.21v52.08Z" transform="translate(-230.62 -162.41)"/><path class="cls-1" d="M230.62,486.74l29,26.67V479.62l-29-24.89V427.55l35.56-32.26,19.81,18-15.5,15.24-16.26-15.75v29.47l29,25.91v32l-20.32,19.56H230.62v-33Z" transform="translate(-230.62 -162.41)"/><path class="cls-1" d="M298.19,432.88L335,395.29l24.89,35.56-38.1,44.71v22.35h33l-20.58,21.85H298.19V432.88Zm42.93,12.19-19.31-29.21v52.08Z" transform="translate(-230.62 -162.41)"/><path class="cls-1" d="M370.34,419.93l23.37-24.64v26.93l31.75-26.93v41.66l-20.83,15V419.67l-10.92,8.89v69.35h14.48l-17.27,21.85H370.34V419.93Z" transform="translate(-230.62 -162.41)"/><path class="cls-1" d="M459.25,343.46v29.21l-23.37,24.64V368.11Zm-23.37,76.46,23.37-24.64V497.91h14.48l-17.27,21.85H435.88V419.93Z" transform="translate(-230.62 -162.41)"/><path class="cls-1" d="M478.81,467.94l40.39-36.58-16.26-17.53v18.54h-25.4v-4.32l39.88-32.77,24.64,25.4v77.22h15l-17.27,21.85H519.2V501.47l-20.83,18.29H478.81V467.94Zm40.39,30v-59.7l-16.77,15.5v44.2H519.2Z" transform="translate(-230.62 -162.41)"/><path class="cls-1" d="M563.65,363.53L587,338.89v159H601.5l-17.27,21.85H563.65V363.53Z" transform="translate(-230.62 -162.41)"/><path class="cls-1" d="M231.13,582l23.62-23.88v70.62l13.72-14.23,27.44,26.16v60.71L257,739H231.13V582Zm41.66,135.14V650.63l-18-17v83.58h18Z" transform="translate(-230.62 -162.41)"/><path class="cls-1" d="M335.79,562.74v29.21l-23.37,24.64V587.38ZM312.42,639.2l23.37-24.64V717.19h14.48L333,739H312.42V639.2Z" transform="translate(-230.62 -162.41)"/><path class="cls-1" d="M356.87,582l23.62-23.88v70.62l13.72-14.23,27.44,26.16v60.71L382.78,739H356.87V582Zm41.66,135.14V650.63l-18-17v83.58h18Z" transform="translate(-230.62 -162.41)"/><path class="cls-1" d="M438.16,582.8l23.37-24.64v159H476L458.73,739H438.16V582.8Z" transform="translate(-230.62 -162.41)"/><path class="cls-1" d="M482.1,652.15l36.83-37.6,24.89,35.56-38.1,44.71v22.35h33L518.18,739H482.1V652.15ZM525,664.35l-19.31-29.21v52.08Z" transform="translate(-230.62 -162.41)"/></svg>